<svg xmlns="http://www.w3.org/2000/svg" width="20.917" height="20.601" viewBox="0 0 20.917 20.601">
  <g id="COCO_Duotone_Text" data-name="COCO/Duotone/Text" transform="translate(-2.245 -2.245)">
    <path id="Vector" d="M.38,6.311A8.033,8.033,0,0,1,6.415.374a14.628,14.628,0,0,1,6.575,0,8.033,8.033,0,0,1,6.035,5.937,13.939,13.939,0,0,1,0,6.469,8.033,8.033,0,0,1-6.035,5.937,14.628,14.628,0,0,1-6.575,0A8.033,8.033,0,0,1,.38,12.78,13.939,13.939,0,0,1,.38,6.311Z" transform="translate(3 3)" fill="rgba(76,134,19,0.15)" stroke="#4c8613" stroke-linecap="round" stroke-linejoin="round" stroke-width="1.5"/>
    <path id="Path_21631" data-name="Path 21631" d="M-8.232,0-3.99-8.246h1.372L-6.86,0Zm1.568-6.006a2.719,2.719,0,0,1-.476,1.68,1.516,1.516,0,0,1-1.274.63A1.577,1.577,0,0,1-9.73-4.305a2.676,2.676,0,0,1-.476-1.687A2.463,2.463,0,0,1-9.723-7.6,1.6,1.6,0,0,1-8.414-8.19a1.545,1.545,0,0,1,1.26.609A2.434,2.434,0,0,1-6.664-6.006Zm-1.022.028A1.79,1.79,0,0,0-7.9-6.9a.627.627,0,0,0-.539-.371.628.628,0,0,0-.539.364,1.782,1.782,0,0,0-.217.924,2.05,2.05,0,0,0,.21.987.621.621,0,0,0,.546.385A.621.621,0,0,0-7.9-4.991,2.05,2.05,0,0,0-7.686-5.978Zm6.958,3.71A2.719,2.719,0,0,1-1.2-.588a1.516,1.516,0,0,1-1.274.63A1.571,1.571,0,0,1-3.794-.574a2.682,2.682,0,0,1-.476-1.68,2.493,2.493,0,0,1,.483-1.617,1.6,1.6,0,0,1,1.309-.595,1.539,1.539,0,0,1,1.26.616A2.463,2.463,0,0,1-.728-2.268Zm-1.036.028a1.838,1.838,0,0,0-.21-.917.613.613,0,0,0-.532-.371.622.622,0,0,0-.546.357,1.821,1.821,0,0,0-.21.931,2.05,2.05,0,0,0,.21.987.621.621,0,0,0,.546.385.613.613,0,0,0,.532-.385A2.05,2.05,0,0,0-1.764-2.24Z" transform="translate(18 17)" fill="#4c8613"/>
  </g>
</svg>
