<svg xmlns="http://www.w3.org/2000/svg" width="21.011" height="20.626" viewBox="0 0 21.011 20.626">
  <g id="COCO_Duotone_Note" data-name="COCO/Duotone/Note" transform="translate(-2.245 -2.245)">
    <path id="Vector" d="M.382,6.319A8.059,8.059,0,0,1,6.446.375a14.75,14.75,0,0,1,6.607,0,8.059,8.059,0,0,1,6.064,5.944,13.908,13.908,0,0,1,0,6.477,8.059,8.059,0,0,1-6.064,5.944,14.75,14.75,0,0,1-6.607,0A8.059,8.059,0,0,1,.382,12.8,13.908,13.908,0,0,1,.382,6.319Z" transform="translate(3 3)" fill="rgba(76,134,19,0.15)" stroke="#4c8613" stroke-width="1.5"/>
    <path id="Vector-2" data-name="Vector" d="M11.081,18.51c0-3.125,0-4.687.99-5.658s2.584-.971,5.771-.971" transform="translate(3.923 3.99)" fill="rgba(76,134,19,0.15)" stroke="#4c8613" stroke-width="1.5"/>
    <path id="Vector-3" data-name="Vector" d="M0,0H3.25M0,3.25H5.417" transform="translate(9.5 9.5)" fill="rgba(76,134,19,0.15)" stroke="#4c8613" stroke-linecap="round" stroke-width="1.5"/>
  </g>
</svg>
